<svg width="100" height="21" viewBox="0 0 100 21" fill="none" xmlns="http://www.w3.org/2000/svg">
<path d="M0 19.7831V0H6.92951C9.32993 0 11.1506 0.461967 12.3916 1.3859C13.6326 2.30078 14.253 3.64592 14.253 5.42132C14.253 6.39055 14.0039 7.24655 13.5057 7.98932C13.0075 8.72303 12.3146 9.26199 11.4269 9.6062C12.4414 9.85983 13.2385 10.3716 13.8183 11.1416C14.407 11.9115 14.7014 12.8536 14.7014 13.9677C14.7014 15.8699 14.0945 17.3102 12.8807 18.2885C11.6669 19.2668 9.93683 19.765 7.6904 19.7831H0ZM4.07618 11.1687V16.5085H7.56811C8.52828 16.5085 9.27558 16.2821 9.81001 15.8292C10.3535 15.3672 10.6252 14.7331 10.6252 13.927C10.6252 12.1153 9.68773 11.1959 7.81268 11.1687H4.07618ZM4.07618 8.28824H7.09256C9.14876 8.252 10.1769 7.43224 10.1769 5.82894C10.1769 4.93218 9.91418 4.28905 9.38881 3.89955C8.87249 3.50099 8.05272 3.30171 6.92951 3.30171H4.07618V8.28824Z" fill="#454545"/>
<path d="M24.2805 20.0548C22.1246 20.0548 20.3673 19.3936 19.0086 18.0711C17.6589 16.7486 16.9841 14.9868 16.9841 12.7856V12.4052C16.9841 10.9287 17.2694 9.61073 17.8401 8.45128C18.4108 7.28278 19.2169 6.38602 20.2586 5.761C21.3094 5.12693 22.5051 4.80989 23.8457 4.80989C25.8566 4.80989 27.4372 5.44397 28.5876 6.71211C29.7471 7.98026 30.3268 9.77831 30.3268 12.1063V13.7096H20.9652C21.092 14.6697 21.4724 15.4397 22.1065 16.0194C22.7496 16.5991 23.5603 16.889 24.5386 16.889C26.0513 16.889 27.2334 16.341 28.0849 15.2449L30.0143 17.4053C29.4255 18.2387 28.6284 18.8908 27.6229 19.3619C26.6175 19.8238 25.5033 20.0548 24.2805 20.0548ZM23.8321 7.98932C23.0531 7.98932 22.419 8.252 21.9299 8.77738C21.4498 9.30275 21.1418 10.0546 21.0059 11.0329H26.468V10.7204C26.4499 9.85077 26.2144 9.18047 25.7615 8.70944C25.3086 8.22936 24.6654 7.98932 23.8321 7.98932Z" fill="#454545"/>
<path d="M39.6477 8.91325L43.7646 0H48.2212L41.7265 12.609V19.7831H37.5824V12.609L31.0877 0H35.5579L39.6477 8.91325Z" fill="#454545"/>
<path d="M48.262 12.2965C48.262 10.8381 48.5428 9.53827 49.1044 8.39694C49.666 7.2556 50.4722 6.37243 51.5229 5.74742C52.5827 5.1224 53.8101 4.80989 55.2051 4.80989C57.1888 4.80989 58.8057 5.41679 60.0557 6.63059C61.3148 7.84439 62.0168 9.49298 62.1618 11.5764L62.1889 12.5818C62.1889 14.8373 61.5594 16.6489 60.3003 18.0167C59.0412 19.3755 57.3519 20.0548 55.2323 20.0548C53.1126 20.0548 51.4188 19.3755 50.1506 18.0167C48.8915 16.658 48.262 14.8101 48.262 12.4731V12.2965ZM52.1887 12.5818C52.1887 13.9768 52.4514 15.0456 52.9768 15.7884C53.5022 16.5221 54.254 16.889 55.2323 16.889C56.1834 16.889 56.9261 16.5267 57.4606 15.802C57.995 15.0683 58.2622 13.8998 58.2622 12.2965C58.2622 10.9287 57.995 9.86889 57.4606 9.11706C56.9261 8.36523 56.1743 7.98932 55.2051 7.98932C54.2449 7.98932 53.5022 8.36523 52.9768 9.11706C52.4514 9.85983 52.1887 11.0147 52.1887 12.5818Z" fill="#454545"/>
<path d="M73.412 18.2885C72.4428 19.466 71.1022 20.0548 69.3902 20.0548C67.8141 20.0548 66.6093 19.6019 65.776 18.6961C64.9517 17.7903 64.5305 16.4632 64.5124 14.715V5.08164H68.4391V14.5791C68.4391 16.11 69.1366 16.8754 70.5315 16.8754C71.8631 16.8754 72.778 16.4134 73.2762 15.4895V5.08164H77.2165V19.7831H73.5207L73.412 18.2885Z" fill="#454545"/>
<path d="M98.774 5.1082C98.3855 4.71948 97.9242 4.41113 97.4164 4.20074C96.9087 3.99036 96.3645 3.88208 95.8149 3.88208C95.2653 3.88208 94.7211 3.99036 94.2133 4.20074C93.7056 4.41113 93.2443 4.71948 92.8558 5.1082L92.0494 5.91454L91.2431 5.1082C90.4583 4.32339 89.3938 3.88249 88.284 3.88249C87.1741 3.88249 86.1096 4.32339 85.3248 5.1082C84.54 5.893 84.0991 6.95743 84.0991 8.06732C84.0991 9.1772 84.54 10.2416 85.3248 11.0264L92.0494 17.751L98.774 11.0264C99.1627 10.6379 99.4711 10.1766 99.6814 9.66886C99.8918 9.16112 100 8.61691 100 8.06732C100 7.51772 99.8918 6.97351 99.6814 6.46577C99.4711 5.95804 99.1627 5.49673 98.774 5.1082Z" fill="#FF5555"/>
</svg>
