<svg width="20" height="18" viewBox="0 0 20 18" fill="none" xmlns="http://www.w3.org/2000/svg">
<path d="M17.7505 2.24913L17.7509 2.24946C18.1469 2.64528 18.461 3.11525 18.6754 3.63252C18.8897 4.14978 19 4.70421 19 5.26412C19 5.82403 18.8897 6.37845 18.6754 6.89572C18.461 7.41299 18.1469 7.88296 17.7509 8.27878L17.7507 8.27895L9.99974 16.0299L2.24878 8.27895C1.4492 7.47936 1 6.3949 1 5.26412C1 4.13334 1.4492 3.04888 2.24878 2.24929C3.04836 1.44971 4.13283 1.00051 5.26361 1.00051C6.39439 1.00051 7.47885 1.44971 8.27843 2.24929L9.29264 3.2635C9.68316 3.65402 10.3163 3.65402 10.7069 3.2635L11.7211 2.24929L11.7212 2.24913C12.117 1.85312 12.587 1.53897 13.1043 1.32465C13.6215 1.11032 14.176 1 14.7359 1C15.2958 1 15.8502 1.11032 16.3675 1.32465C16.8847 1.53897 17.3547 1.85312 17.7505 2.24913Z" stroke="white" stroke-width="2" stroke-linecap="round" stroke-linejoin="round"/>
</svg>
