<svg width="90" height="24" viewBox="0 0 90 24" fill="none" xmlns="http://www.w3.org/2000/svg">
<path d="M0 23.0582V0H8.07672C10.8745 0 12.9967 0.538448 14.4431 1.61534C15.8895 2.68168 16.6127 4.24952 16.6127 6.31885C16.6127 7.44853 16.3224 8.44624 15.7417 9.31198C15.161 10.1672 14.3533 10.7954 13.3187 11.1966C14.5011 11.4922 15.4302 12.0887 16.1059 12.9861C16.7922 13.8835 17.1353 14.9815 17.1353 16.2801C17.1353 18.4973 16.4279 20.176 15.0132 21.3162C13.5985 22.4564 11.5819 23.0371 8.96358 23.0582H0ZM4.75101 13.0178V19.2416H8.82105C9.94017 19.2416 10.8112 18.9777 11.4341 18.4498C12.0676 17.9113 12.3843 17.1723 12.3843 16.2326C12.3843 14.1211 11.2916 13.0494 9.10611 13.0178H4.75101ZM4.75101 9.66039H8.26676C10.6634 9.61816 11.8617 8.66268 11.8617 6.79395C11.8617 5.74872 11.5555 4.99912 10.9432 4.54513C10.3414 4.08059 9.38589 3.84832 8.07672 3.84832H4.75101V9.66039Z" fill="#F9F9F9"/>
<path d="M28.3002 23.375C25.7874 23.375 23.7392 22.6043 22.1556 21.0628C20.5824 19.5214 19.7959 17.4679 19.7959 14.9023V14.4589C19.7959 12.738 20.1285 11.2018 20.7936 9.85043C21.4587 8.48847 22.3984 7.44325 23.6125 6.71476C24.8372 5.97572 26.2309 5.60619 27.7934 5.60619C30.1373 5.60619 31.9796 6.34524 33.3204 7.82333C34.6718 9.30143 35.3475 11.3971 35.3475 14.1105V15.9792H24.436C24.5838 17.0984 25.0273 17.9958 25.7663 18.6715C26.5159 19.3472 27.4608 19.685 28.6011 19.685C30.3642 19.685 31.742 19.0463 32.7345 17.7688L34.9833 20.2868C34.297 21.2581 33.3679 22.0183 32.196 22.5673C31.0241 23.1058 29.7255 23.375 28.3002 23.375ZM27.7776 9.31198C26.8696 9.31198 26.1306 9.61816 25.5604 10.2305C25.0009 10.8429 24.6419 11.7192 24.4835 12.8594H30.8499V12.4952C30.8288 11.4816 30.5543 10.7003 30.0264 10.1513C29.4985 9.59176 28.7489 9.31198 27.7776 9.31198Z" fill="#F9F9F9"/>
<path d="M46.2115 10.3889L51.01 0H56.2045L48.6345 14.6965V23.0582H43.8043V14.6965L36.2344 0H41.4447L46.2115 10.3889Z" fill="#F9F9F9"/>
<path d="M56.252 14.3322C56.252 12.6324 56.5793 11.1174 57.2339 9.78708C57.8884 8.4568 58.8281 7.42742 60.0528 6.69893C61.2881 5.97044 62.7186 5.60619 64.3445 5.60619C66.6567 5.60619 68.5413 6.31357 69.9982 7.72831C71.4658 9.14306 72.284 11.0646 72.4529 13.4929L72.4846 14.6648C72.4846 17.2937 71.7508 19.4052 70.2833 20.9995C68.8158 22.5831 66.8467 23.375 64.3762 23.375C61.9057 23.375 59.9314 22.5831 58.4533 20.9995C56.9857 19.4158 56.252 17.262 56.252 14.5381V14.3322ZM60.8288 14.6648C60.8288 16.2907 61.135 17.5365 61.7473 18.4023C62.3597 19.2574 63.236 19.685 64.3762 19.685C65.4848 19.685 66.3505 19.2627 66.9734 18.4181C67.5963 17.5629 67.9078 16.201 67.9078 14.3322C67.9078 12.738 67.5963 11.5027 66.9734 10.6264C66.3505 9.75013 65.4742 9.31198 64.3445 9.31198C63.2254 9.31198 62.3597 9.75013 61.7473 10.6264C61.135 11.4922 60.8288 12.8383 60.8288 14.6648Z" fill="#F9F9F9"/>
<path d="M85.5657 21.3162C84.436 22.6887 82.8735 23.375 80.8781 23.375C79.041 23.375 77.6368 22.8471 76.6655 21.7913C75.7047 20.7355 75.2138 19.1888 75.1927 17.1512V5.92293H79.7695V16.9928C79.7695 18.7771 80.5824 19.6692 82.2083 19.6692C83.7603 19.6692 84.8267 19.1307 85.4074 18.0538V5.92293H90V23.0582H85.6924L85.5657 21.3162Z" fill="#F9F9F9"/>
</svg>
